<?xml version="1.0" standalone="no"?>
<!DOCTYPE svg PUBLIC "-//W3C//DTD SVG 20010904//EN"
 "http://www.w3.org/TR/2001/REC-SVG-20010904/DTD/svg10.dtd">
<svg version="1.0" xmlns="http://www.w3.org/2000/svg"
 width="300.000000pt" height="300.000000pt" viewBox="0 0 300.000000 300.000000"
 preserveAspectRatio="xMidYMid meet">

<g transform="translate(0.000000,300.000000) scale(0.100000,-0.100000)"
fill="#6d4099" stroke="none">
<path d="M1380 2989 c-582 -44 -1093 -436 -1288 -990 -62 -176 -77 -272 -77
-499 0 -178 3 -219 23 -309 137 -612 611 -1065 1221 -1166 141 -23 435 -16
561 13 608 143 1047 604 1156 1215 20 112 23 360 5 467 -68 402 -263 731 -580
974 -203 156 -493 271 -736 291 -141 11 -182 12 -285 4z m580 -1407 c0 -318
-2 -581 -4 -583 -3 -2 -25 -3 -50 -1 l-45 4 -3 61 -3 61 -725 176 -725 175 -3
100 -3 100 668 164 c367 90 696 170 731 178 l62 15 0 64 0 64 50 0 50 0 0
-578z m559 559 c10 -10 33 -56 51 -102 122 -315 119 -604 -10 -954 -26 -71
-53 -99 -81 -85 -37 20 -38 41 -7 119 120 302 121 623 3 902 -19 46 -35 89
-35 96 0 12 38 43 52 43 5 0 16 -8 27 -19z m-204 -109 c105 -158 147 -453 96
-666 -25 -105 -89 -246 -122 -269 -20 -14 -26 -15 -44 -3 -31 21 -29 38 14
128 62 130 75 191 76 353 0 159 -20 250 -81 371 -39 78 -40 81 -17 106 25 28
50 22 78 -20z m-201 -115 c27 -27 71 -154 86 -247 20 -127 11 -257 -27 -388
-19 -67 -52 -88 -85 -55 -21 21 -21 23 -4 82 44 157 39 338 -14 482 -35 96
-36 106 -13 131 21 23 29 23 57 -5z m-641 -728 c53 -12 97 -26 97 -30 0 -17
-96 -102 -141 -124 -66 -34 -172 -49 -245 -36 -164 31 -322 165 -352 298 -5
23 -8 44 -6 46 2 2 127 -27 276 -64 150 -37 317 -78 371 -90z"/>
<path d="M921 1239 c23 -45 102 -112 167 -142 56 -27 81 -32 155 -35 83 -4 93
-2 153 28 36 18 64 34 62 36 -4 3 -533 134 -544 134 -3 0 0 -10 7 -21z"/>
</g>
</svg>
